<svg version="1.1" viewBox="0 0 800 610">
    <g id="main" transform="translate(1,0)">
        <g id="outside">
            <path id="saitama" d="M-4-4v66l7-7l12,4l4-2l9-4l-1-5l2-7l17-11l9-5l5,4l12-3l7-12l6-2l33,24l8,2l8-3l14,7l36,4l9,6l3,6h1l18,8l11,1l3-5h4l15,9l6-4 l2,4l14,1l12-3l4-1l3,4l4-2l3,3h6l2,12l8-3v6v4l6,17l5,3l13-3l3,3l15,2l-2,5l4,6l-2,1l5-1l3,5l-1,3l-1,1l1,2l4,3l5-2v3l10-5 l12,3l14-4l2,3l25-8l7-5l5,1l5-2l1,3l13-9l6-1l15-17l4,4l-7,11l5,3l-1,8l-16,7l-4,6l23-8l-2,18l9-3l5-3l6-2v-2l9-5l5-7h4h2v1 l6,3l-5,5l13-2l2,4l4-1l1-11v-1l10-10l3-6h4l9-3l29,2h1l7,6l11,1l3,3h10v7l7-6h6l4-7l-8-14l4-4l10-4l10,10l13,1l13-3l4-3v-3l3,3 l-3,10l4,7l9-7l7,4l7,6l2-4l12-2l2,3l-4,6l4,6l13-2l-4-11l2-22l-2-11l8-35l-7-24L739,0l-2-4H-4z"/>
            <path id="chiba" d="M737-4l2,4l12,18l7,24l-8,35l2,11l-2,22l4,11v4l-9,6l-2,4l8,16l1,1l8,8l-3,13l3,6l12,13l2,9l-9,13l-16,5l-1,6l1,1l1,15l-3,10 l-8,5l3,1l-4,5l1,8l12,3l3-4l4,9l32-23l-17-14h1l9-10l13-3l-2-3l-12,3l3-6l2,2l8-7l5,9l4-4V-4H737z"/>
            <path id="kanagawa" d="M560,424v-1l-5-1l1-1h3v-4l2,2v-4l-4-1l7-9l4-2l-1,1l4,6h5h7l-1-6h5l-4,3l3,5l-4,1v6l11-5v-4l8-4l-4-9l1-4l1,6l2-4l2,3l2-1l-2,3 l2,6l12,16l9-5l13-7l-5-10l3-2l-3-4l8,8l10-5v-4l2,3l10-6l3-1v-5l-9-2l-2-5l7-4l2,6l3-3l8,5l6-14l-31-20l-14-1l-5,4l-5-3l-7,5 l-11,2l-4-7l4-8l-17-9l-11-24l-9-3l-9-7l-19-15l-17-4h-5l-13-5l-8-8l-11-4l-17-6l-4,5l2,5l-5,2l-2,5l-2,1l-13,6l4,11l-8,1l-10-8 l-1-6l-5-1l-3-4l-9,6l-3,6l4,7l9-5l4,8l10,7l8,5v6l10,6l-1,4l-12,10l-6-10l5-11l-3-1l-7,2l-5,12l-1,6l9,4v15l5,7l-1,3l1,12l-7,8 l2,4l4,3l-14,1l-3-14l-6-2l1-6l-3-6l-6-9l-9-4l-9-13l-4-2l-5-13h-5l-3-8l-6-1l-23-13l-17-6l-7,3l-5-2h-15l-10-7l-6-1l-11,3l-3,7 l-6-2l-4,3l-9-5l-8-7l-1-6l-7-6l2-3l-5-7l-1-10l-12-5l-11,8l-12-6l-1-10l-4-6l-6,2l-17-6l-5,7l-5,8l-1,3l8,11l-3,16l8,8l-5,3 l4,4l-1,5l-2,8l-6,7l5,6l1,11v5l-13,13l1,11l-10,13l-12,12l-7,1l-8,1h-15l-2,10l-12,13v4l-5,1h-5l-5,5l-15,1l-8,9l-4-3l-10,4v1 H560z M601,424l2-2l-2-7l-15,6v3H601z M559,414l13,8l-3-3l3-2l-3-5l-6,3v-5L559,414z M558,413l4-3l-1-2L558,413z M561,408l9,3 l-6-6L561,408z"/>
            <path id="yamanashi" d="M39,424v-1l10-4l4,3l8-9l15-1l5-5h5l5-1v-4l12-13l2-10h15l8-1l7-1l12-12l10-13l-1-11l13-13v-5l-1-11l-5-6l6-7l2-8l1-5l-4-4l5-3 l-8-8l3-16l-8-11l1-3l5-8l5-7l-19-17h-11l-7-4l-9-2l-34-21l-10-17l-1-2l-1-2l-4-9l-10-5l-7-13l2-12l-8-9l-4-15V76l-6,1l-7-6 l-4-7l1-6l-4-5l-9,4l-4,2L3,55l-7,7v362H39z"/>
        </g>
        <g id="tokubetsuku">
            <path id="chiyoda" d="M636,223l7,5l8,1l9-12l-2-6l11-8l-9-8l-2,5l-17-3l-11,13v7L636,223z" />
            <path id="chuo" d="M656,245l7,7l12-10l-2-18l4-10l-2-4l-1-4v-1l-5-2l-11,8l2,6l-9,12l3,3l-2,6l5,4L656,245z"/>
            <path id="minato" d="M614,232l2,7l8,2v9l-3,5l-1,6h6l3,3l4,8l17-1l2-3v-6l-5-1l1-4l5,2l-1-8l1-6h3l1-3l-5-4l2-6l-3-3l-8-1l-7-5l-6-6l-8,2l-3,6 L614,232z M661,272l8-6l-4-6l-4,3l3-2l2,3l-7,5L661,272z"/>
            <path id="shinjuku" d="M641,197l-2-5l-8,1l-8-5l-12-1l-1-9l-16,1l-5-7l-3,10l4,1l2,5l1,2l9-1l-5,4l-3,14l1,7l2,3l9-7l5,1l7,7l-2,6l3,1l3-6l8-2v-7 L641,197z"/>
            <path id="bunkyo" d="M658,184l-4-5v-8l-1-2l-7-2l-2,2l-4-3l-6,6v4l-9-1v6l-5,2l1,4l2,1l8,5l8-1l2,5l17,3l2-5l1-3l-4-1l-2-8L658,184z"/>
            <path id="taito" d="M669,203l5,2l14-23l2-9l-14-3l-9,6l-13-5v8l4,5l-3-1l2,8l4,1l-1,3L669,203z"/>
            <path id="sumida" d="
            M674,206l1,4l15,2l2-5l6-1l-1-14l13,5l3-7l-5-5l7-4l-17-22l-4,4l-4,10l-2,9l-14,23V206z"/>
            <path id="koto" d="M663,252l10,16l4-2l5,7l3-4l-2-9l5-1v-3l21-4v9l-10,3l15-2l1-19l3-3l1-36l-9-7l-13-5l1,14l-6,1l-2,5l-15-2l2,4l-4,10l2,18 L663,252z M699,257v5l3-1v-3l6-2h-6l1-2L699,257z M703,265l1,10l3-1l3,8l4-18L703,265z M669,266l-8,6l2,3l10,17l4-7l-9-14l3-2 L669,266z M672,270l7,11l2-4l-6-9L672,270z"/>
            <path id="shinagawa" d="M609,293l9,1l3,8l7-3l2,7l13-3l6,1v4h5v-9l4,2l5-3l-11-19v-11l-2,3l-17,1l-4-8l-3-3h-6l1-6h-1l-4,4l2,8l-15,4l6,2l-6,8v6 L609,293z M663,275l-2-3l-2-3h-1l2,7L663,275z"/>
            <path id="meguro" d="M603,287v-6l6-8l-6-2l15-4l-2-8l4-4l-7-1l-17-18l-9-2l7,11l2,12l-5,13l-14-6l4,13l-3,9h11l2,7v-3l4-1v-7L603,287z"/>
            <path id="ota" d="M663,298l-5,3l-4-2v9h-5v-4l-6-1l-13,3l-2-7l-7,3l-3-8l-9-1l-6-6l-8-5v7l-4,1v3l-2,8l-6-6l-7-1l-6,4l4,2l-2,3l9,3l11,24l17,9 l-4,8l4,7l11-2l7-5l5,3l5-4l14,1l31,20l8-16l-18-29l-11,1l-6,8l-4-4l-4,2l-8-7v-4h-16l31-3l4-4v4h12l3-2l-4-6l-10,3l6-7L663,298 z M641,321l4,4l5-2l-3-6L641,321z M650,321l7,6l6-9h-12L650,321z"/>
            <path id="setagaya" d="M522,273v4h5l17,4l19,15l9,7l2-3l-4-2l6-4l7,1l6,6l2-8l-2-7h-11l3-9l-4-13l14,6l5-13l-2-12l-7-11l-4-8h-6l-18,6l-11-5l-10-5l4,6 h-6l-2-8l-9-3h-2h-5l2,7l-4,1l5,4v3l-2,2l5,12v5h-4l-2,5l7,13L522,273z"/>
            <path id="shibuya" d="M587,234l9,2l17,18l7,1h1l3-5v-9l-8-2l-2-7l5-7l-3-1l2-6l-7-7l-5-1l-9,7l-2-3l-1-7l-15,15l-2,4h6L587,234z"/>
            <path id="nakano" d="M581,208l-6,4l4,10l15-15l3-14l5-4l-9,1l-1-2l-2-5l-4-1l3-10v-1l-5-3l-9,8h-12l-9-9h-4l-2,5l6,12l15,7h5l2,13l5,1V208z"/>
            <path id="suginami" d="M579,222l-4-10l6-4v-3l-5-1l-2-13h-5l-15-7l-6-12l-15,3l-8,8l-5-2l-1,8l7,6l-7,11l6,4l-3,2l3,5l9,3l2,8h6l-4-6l10,5l11,5l18-6 L579,222z"/>
            <path id="toshima" d="M646,167l-8-7l-6,1l-1-4l-4,1l-2,4l-4-5h-7l-5,9l-4-6l-5-1l-9,4l-1,6l-1,2v1l5,7l16-1l1,9l12,1l-2-1l-1-4l5-2v-6l9,1v-4l6-6l4,3 L646,167z"/>
            <path id="kita" d="M646,167l7,2l3-3l4-2l-2-3l-14-9l1-3l5-1l-7-4l8-6v-4l-10,3l-8-5l2-8v-7h-10l-3-3l-11-1l-7-6h-1l-5,11l5,4l5-1l3,16l7,6l5,9 l-2,5l4,5l2-4l4-1l1,4l6-1L646,167z"/>
            <path id="arakawa" d="M654,171l13,5l9-6l14,3l4-10l-17-2l-3-5l2-4l-5-3l-21-1l-5,1l-1,3l14,9l2,3l-4,2l-3,3L654,171z"/>
            <path id="itabashi" d="M623,152l-5-9l-7-6l-3-16l-5,1l-5-4l5-11l-29-2l-9,3h-4l-3,6l-10,10v1l8,10l6-2l20,3l4,9l-1,13l6,1v4l9-4l5,1l4,6l5-9h7L623,152 z"/>
            <path id="nerima" d="M503,180l16,9l1-8l5,2l8-8l15-3l2-5h4l9,9h12l9-8l5,3l1-2l1-6v-4l-6-1l1-13l-4-9l-20-3l-6,2l-8-10l-1,11l-4,1l-2-4l-13,2l5-5 l-6-3v-1h-2h-4l-5,7l-9,5v2l-6,2l5,11L503,180z"/>
            <path id="adachi" d="M694,143h4l2,4l1-6l4,4l2-6l4,1l6-6l10,3l-10-20l1-9l-7-4l-9,7l-4-7l3-10l-3-3v3l-4,3l-13,3l-13-1l-10-10l-10,4l-4,4l8,14l-4,7 h-6l-7,6l-2,8l8,5l10-3v4l-8,6l7,4l21,1l5,3l-2,4l3,5l17,2l4-4l-5-11L694,143z"/>
            <path id="katsushika" d="M715,181l7,8l6-3l6,2l4-24h3l7-8l-4-4l7-1l-8-16l2-4l9-6v-4l-13,2l-4-6l4-6l-2-3l-12,2l-2,4l-7-6l-1,9l10,20l-10-3l-6,6l-4-1 l-2,6l-4-4l-1,6l-2-4h-4l-1,5l5,11L715,181z"/>
            <path id="edogawa" d="M710,197l9,7l-1,36h4l-1,14l8,3l10-1l8-5l3-10l-1-15l-1-1l1-6l16-5l9-13l-2-9l-12-13l-3-6l3-13l-8-8l-1-1l-7,1l4,4l-7,8h-3 l-4,24l-6-2l-6,3l-7-8l-7,4l5,5L710,197z M721,260v-3l6,1v3l1-2l-6-3L721,260z M728,261l2-2l5,2l-1,2l1-2l-4-2L728,261z"/>
        </g>
        <g id="toka">
            <path id="hachioji" d="M246,281l8,7l9,5l4-3l6,2l3-7l7-9l7-3l5,2v5l11-1l6,3l11-3l6,2v-9l4,13l5,2l7,3l5-4l16,10l1-6l5-3l8-12l8-5l12-6l-12-14l-13,7 l-16-1l1-3l-8-1l-8-10v-4l11-6l3-19l3-1l-3-4l-27-2l-3-2l-4-13l1-3l-2,1l-8-7l-3,5l-5-2l-3,4l-1-2l-6,2l-17-3l-4,5l-10-3l-5,2 l-24-8l-9,8l-5,21l-21-1l-8,20l4,6l1,10l12,6l11-8l12,5l1,10l5,7l-2,3l7,6L246,281z"/>
            <path id="tachikawa" d="M365,208l25,8l3-5l3,2l4-4l1-6l-5-5l4-1l5-4l-6-7l2-1l-3-1l4-2l8,7l2-10l-1-1l-17-6h3l-9-3l-15-1l-9-10l1,4l5,7l-6-2v2l-18-6 l-5,3l1,10h19v4l14,9L365,208z"/>
            <path id="musashino" d="M500,198l8,4l4-3l7,7l7-11l-7-6l-16-9h-8l-13,9l-6-1v-4h-3l-1,4l6,3l1,10l2,3l11,1l-1-11L500,198z"/>
            <path id="mitaka" d="M523,217h2l-3-5l3-2l-6-4l-7-7l-4,3l-8-4l-9-4l1,11l-11-1l-2-3l-1,10l-6-2l2,6l1,3l-3,1l5,11l3-1l5,5l2-3l-2-3l1-10l12-2l2,2 l3,15l6,1l2,4l5-5l-5-8l10,4l-5-4l4-1l-2-7H523z"/>
            <path id="ome" d="M195,126l11-7l12-3l14,15l8-1l8,5l13,2l6,6h24l6,6l-3-20l5-6l4,3l6,3l7-2l3-3l-5-8l6,2l3-6l-5-3l-6-17v-4v-6l-8,3l-2-12h-6l-3-3 l-4,2l-3-4l-4,1l-12,3l-14-1l-2-4l-6,4l-15-9h-4l-3,5l-11-1l-18-8h-1l2,7l9,10l-2,24l-22,14l1,9l-8,4v5l5-4l3,2v-4l5,6h3v-5H195 z"/>
            <path id="fuchu" d="M409,240l24,8l9-3l13,3l7-2l7,5v-7l-3-2l4-8l3-8l-4-9l1-5l-3-4l-3,3v2l-6-1l-5,3l2-3l-4,2l-5-5l-1-5l-9,6l-9,1v-3l-2-8l-3,7 l-4,4l-3,14l2,2l-5-2l-13,3L409,240z"/>
            <path id="akishima" d="M358,208h7l10-19l-14-9v-4h-19l-2,3l-9,2l-1,3l-5,4l-1,3l4,13l3,2L358,208z"/>
            <path id="chofu" d="M473,254l17,6l11,4l2-14l7-4l10,5h4v-5l-5-12l2-2v-3l-10-4l5,8l-5,5l-2-4l-6-1l-3-15l-2-2l-12,2l-1,10l2,3l-2,3l-5-5l-3,1l-5-11 l3-1l-1-3l-4-3l-1,5l4,9l-3,8l-4,8l3,2v7L473,254z"/>
            <path id="machida" d="M449,305l-8-5l-10-7l-4-8l-9,5l-4-7l-2,3l-5-1l-4,5l-5-3l-4,1l-5-5l-17,4l-5,3l-1,6l-16-10l-5,4l-7-3l-5-2l-4-13v9l-6-2l-11,3 l-6-3l-11,1v-5l-5-2l-7,3l-7,9l11-3l6,1l10,7h15l5,2l7-3l17,6l23,13l6,1l3,8h5l5,13l4,2l9,13l9,4l6,9l3,6l-1,6l6,2l3,14l14-1 l-4-3l-2-4l7-8l-1-12l1-3l-5-7v-15l-9-4l1-6l5-12l7-2l3,1l-5,11l6,10l12-10l1-4l-10-6V305z"/>
            <path id="koganei" d="M470,212l4,3l-2-6l6,2l1-10l-1-10l-6-3l1-4l-2-2l-11,3l-1,4l-9-1v3l-8,1l-1,6l6,2l-2,4l1,5l5,5l4-2l-2,3l5-3l6,1v-2l3-3L470,212 z"/>
            <path id="kodaira" d="M412,179l20,7v4l3,2l3-5l4,5l8-1v-3l9,1l1-4l11-3l-5-11l2-2l1-6h-2l-3-2l-1,3v-3v3h-4l-1-4l-2,10v-10l-4-3l-6,4l-1-3l-3,1l1,9 l-6-1l-1-5l-9-3l-11,6l-8,1l-11,6h-3l17,6L412,179z"/>
            <path id="hino" d="M406,247l3-7l-10-12l-9-12l-25-8h-7l3,4l-3,1l-3,19l-11,6v4l8,10l8,1l-1,3l16,1l13-7l1-2l8,5l6-7L406,247z"/>
            <path id="higashimurayama" d="M457,142l-6-1l3-3l-3-8l-1-2l1-2l-1-3l-5,2l-5-1l-7,5l-25,8l-1,3l5,9l4,16l11-6l9,3l1,5l6,1l-1-9l7-14L457,142z"/>
            <path id="kokubunji" d="M422,207l3-7l2,8v3l9-1l9-6l2-4l-6-2l1-6l-4-5l-3,5l-3-2v-4l-20-7l-2,10l-8-7l-4,2l3,1l-2,1l6,7l-5,4l14,2L422,207z"/>
            <path id="kunitachi" d="M422,207l-8-8l-14-2l-4,1l5,5l-1,6l-4,4l-3-2l-3,5l9,12l13-3l5,2l-2-2l3-14L422,207z"/>
            <path id="fussa" d="M330,184l1-3l9-2l2-3l-1-10l5-3l-4-6l-4-2l2,6l-5-5l-3,1l1-4l-14-5l-8,8l4,13l7,5l1,15l2-1L330,184z"/>
            <path id="komae" d="M522,277v-4l3-4l-7-13l2-5l-10-5l-7,4l-2,14l8,8L522,277z"/>
            <path id="higashiyamato" d="M373,141l10,3l-1,10l3,1l3,14l9,3l11-6l8-1l-4-16l-5-9l1-3l-2-3l-14,4l-12-3l-10,5L373,141z"/>
            <path id="kiyose" d="M466,138l4-6l16-7l1-8l-5-3l7-11l-4-4l-15,17l-6,1l-13,9l-1,2l1,2l3,8l-3,3l6,1L466,138z"/>
            <path id="higashikurume" d="M487,148l2-18l-23,8l-9,4l-8,3l-7,14l3-1l1,3l6-4l4,3v10l2-10l1,4h4v-3v3l1-3l3,2h2l-1,6l9-7l-3-3l4-1L487,148z"/>
            <path id="musashimurayama" d="M365,162l-1-4l9,10l15,1l-3-14l-3-1l1-10l-10-3l-3-1v-3l-5,2l-4-3l-1-2l1-1l-5,2l-4-5l-10,27l4,6l18,6v-2l6,2L365,162z"/>
            <path id="tama" d="M414,283l3-6l9-6v-5l5-3l-2-11l4-4l-24-8l-3,7l-3-1l-6,7l-8-5l-1,2l12,14l-12,6l-8,5l-8,12l17-4l5,5l4-1l5,3l4-5l5,1L414,283z"
            />
            <path id="inagi" d="M473,254l-4-3l-7-5l-7,2l-13-3l-9,3l-4,4l2,11l-5,3v5l3,4l5,1l1,6l10,8l8-1l-4-11l13-6l2-1l2-5l5-2l-2-5L473,254z"/>
            <path id="hamura" d="M333,153l-9-21l-8-5l-7,2l-6-3l-4-3l-5,6l3,20l11,3l3,4l8-8L333,153z"/>
            <path id="akiruno" d="M311,156l-3-4l-11-3l-6-6h-24l4,5l12,3l1,9l4,2l-1,8l-15-1l-15-6l-13-1l-9-4l-2-7l-15-9l-9-1l-1-7l-13-8h-3v5h-3l-5-6v4l-3-2 l-5,4l-1,3l8,7l-5,3v3l7,2l11,15l1,30l5,4v12l21,1l5-21l9-8l24,8l5-2l10,3l4-5l17,3l6-2l1,2l3-4l5,2l3-5l8,7l-1-15l-7-5L311,156 z"/>
            <path id="nishitokyo" d="M471,182l2,2h3v4l6,1l13-9h8l3-27l-5-11l-5,3l-9,3l-9,10l-4,1l3,3l-9,7l-2,2L471,182z"/>
            <path id="mizuho" d="M333,153l-1,4l3-1l5,5l-2-6l4,2l10-27l4,5l5-2l1-3l-3-5l-5,1l2-1l-4-6l2-5l-15-2l-3-3l-13,3l-3,6l-6-2l5,8l-3,3l8,5L333,153z"/>
            <path id="hinode" d="M267,143l-6-6l-13-2l-8-5l-8,1l-14-15l-12,3l-11,7l13,8l1,7l9,1l15,9l2,7l9,4l13,1l15,6l15,1l1-8l-4-2l-1-9l-12-3L267,143z"/>
            <path id="hinohara" d="M202,210v-12l-5-4l-1-30l-11-15l-7-2v-3l5-3l-8-7l-4,4l-20-13l-6,3l-2,4h-15l-16,11l-9,2l-2,13l-9-1l-12,6l1,2l10,17l34,21l9,2
            l7,4h11l19,17l17,6l6-2L202,210z"/>
            <path id="okutama" d="M175,134l1-3v-5l8-4l-1-9l22-14l2-24l-9-10l-2-7l-3-6l-9-6l-36-4l-14-7l-6,1l-3,2l-7-2L85,12l-6,2l-7,12l-12,3l-5-4l-9,5L29,41 l-2,7l1,5l4,5l-1,6l4,7l7,6l6-1v22l4,15l8,9l-2,12l7,13l10,5l4,9l1,2l12-6l9,1l2-13l9-2l16-11h15l2-4l6-3l20,13L175,134z"/>
        </g>
        <path id="lakes" d="M383,125l5-3l-2,13l-2-5l-2,4l-2-4l-1,4l-1-2l-7,4l7-8l-11-3H383z M202,35l5,1l-4,4v-3l-10-2H202z M386,137l4,1l-2,5l-10-4L386,137 z M88,123l5-1l1,3l3-6v3h9l-3-4l5-6l4,10v6l-3-5l-2,1l2,8l-4-2l1-5l-12,3l-2-4l-2,12l-3-3v4l1-5l-11-5l-2,5l-5-1l1,5l-8,6l3-6h4v-7 h-7l-3-5l-4,2l-4-5h-4l5-1l3,5l4-3l4,6l5-2l3,3l5-5l10,5v-3l-6-1v-11l2,10L88,123z M239,355l2-3l6,5l9-8l-1-3l5,1l-5,10l-5,2l3,4 l-6-1l9,8l-1,2l7,9l-13-8l-2-8l-3,5v-5l-4-8l-2,1l2,6l-3-3l-6,6l2-10L239,355z M252,292l3,5l5-3l13,11l1-4l7-3l-1,6l6-2l2,5l-9,1 l-2-4l-6,5l-3-5l-6-3l2-1l-3-4l-7,2l-1-5l-10,5l3-6H252z M281,288l-5,3l-1-4l5-1L281,288z M206,288l4-3l-8-5v-5l6,1l7,7l5-3l-3,5 l2,7l-3-4H206z"/>
    </g>
    <g id="toshobu">
        <g id="oshima-box" transform="translate(171,340)">
            <rect id="rect313" x="-10" y="-10" width="170" height="170"/>
            <rect id="rect315" y="0" width="150" height="150"/>
            <path id="oshima" d="M119,92l-3-10l4-10l-5-5l-3-15l-2-6l-8-7l-11-9l-2,1l-15-6l2,3h-3l-12-9l-5,2l-4-2l-2,5l-7,10v8l2,21h-3l3,1l4,9l-3,15l-1,6l7,9 l-2,8l16,5l13,11l17,3l6-1l7,4l5-3l-3-7l6,4l4-11l-5-7l5-11L119,92z"/>
        </g>
        <g id="izu-box-1" transform="translate(1,250)">
            <rect id="rect330" x="-10" y="-10" width="180" height="380"/>
            <rect id="rect332" y="0" width="160" height="360"/>
            <path id="toshima" d="M133,37l11-11l-3-7l-7-2l1-2l-1,2l-4-1l-6,11l3,8L133,37z"/>
            <path id="niijima" d="M139,68l1,1l3,7l6-2L139,68z M108,192l9,11l11,5l2-13l2-44l9-13l2-4l-4-4l4-6l-1-4l-9-8l2,10l-4,5v-2l-5,1l-3,6l-8,10l-3,23 l-5,7l-4-2l2,4L108,192z M90,165l3,5l-1,2l2,1l1-5L90,165z M89,216l3-6l1-3l-7-2l-7-4l-3,2l2,4l-3,4l-3-3l1,4l-6,5l5,3l3-5l2,2 l5,3l6-3l-1-2L89,216z"/>
            <path id="kouzushima" d="M42,324l5-2l2,4h3l-1-13l-2-12l-14-8l-8-4l-6,8l2,8l-7,4l1,2l3,2l-2,2l1,7l-4-1l5,4l-3,4l-6,2v9l-2-1l7,6l5-2l6,1l1-4l1,2l2-8 l5,3l2-5l-2-3l3,1l-3-2L42,324z M61,319l2,3l2-3H61z M63,322l3,3v-3H63z"/>
        </g>
        <g id="miyake-box" transform="translate(121,500)">
            <rect id="rect353" x="-10" y="-10" width="130" height="130"/>
            <rect id="rect355" y="0" width="110" height="110"/>
            <path id="miyake" d="M81,82l7-7V65l3-1l-4-5l3-10l-4-15l-6-3l-10-9l-3,1l-11-2l-10,4h-8l-5,3l-2,5l3,8l-9,13v7l-7,6l5,5l-1,5l3-1l-3,2l2,13l5-1l12,7 l8-3l7,1l2-2l6,2l2-4L81,82z"/>
        </g>
        <g id="mikurajima-box" transform="translate(241,500)">
            <rect id="rect368" x="-10" y="-10" width="100" height="130"/>
            <rect id="rect370" y="0" width="80" height="110"/>
            <path id="mikurajima" d="M51,81l7-3l6-16L53,43l-10-8l-12,4l-9,13l-1,15l2,7l8,4L51,81z"/>
        </g>
        <g id="hachijo-box" transform="translate(331,430)">
            <rect id="rect383" x="-10" y="-10" width="220" height="200"/>
            <rect id="rect385" y="0" width="200" height="180"/>
            <path id="hachijo" d="M174,98l2-8l-8-15l-23-5l2-2l-2,1l-3-7l-9-3l-5-6v-3l-7-5l-11-10H96l-7,1l-3,5l-4,12l2,7l7,14l4,11l12,5l3,2l3-3l2,13v11l5,6 l10,6l4-1l5,5l6-1l5,5l6,7l4-3l-2-9v-7l4-8l15-4l1-4L174,98z M47,73l4,2v-6l-1-6l-5-2l-3-5h-4l-4-1l-2,5l4,4l4,9H47z"/>
        </g>
        <g id="aogashima-box" transform="translate(331,530)">
            <rect id="rect398" x="-10" y="-10" width="90" height="100"/>
            <rect id="rect400" y="0" width="70" height="80"/>
            <path id="aogashima" d="M42,55l9-5v-8l-4-4l-5-7l-11-3l-1,18l4,6L42,55z"/>
        </g>
        <g id="ogasawara-box-1" transform="translate(541,430)">
            <rect id="rect413" x="-10" y="-10" width="130" height="200"/>
            <rect id="rect415" y="0" width="110" height="180"/>
            <path id="ogasawara-1" d="M37,53l4,3l4,1l-1-5l4-1l6-7l2-10h-3l-3-4l1-6l4-3l-7-3l-3-4l-4,3l3,4l-2,3l2,7h-3v9l-2,5l4,2l-1,4L37,53z M57,86l-2,4h11h15h3 v-4l-8-3l1-7l-5-2l-2-6l-7,2l-4,3l1-6l-4,1l-6-5l-2-6l-3,7l4,3l-6,3l4,5l-3,4l5-2l11,5L57,86z M30,81l-6-2l2,4l-4,3l8-1V81z M83,146l3-1l-2-5l-4-3l1-4l1-12l-2-4l-5-1v-9l-5-9h-3l-8-4h-6h-9l-5,5l1,6l3,5l6-1l-2-3l8-7l1,11l6,4l-3,9l-20,1l1,3l4-1l5,3 l-1,3l2,5l-6-1l-1,6l3-1l-5,11l2,4l1-5l4,3l6-4l9,5l1,2l7-3l1,5h8l-5-6l2-7l-3-3l5-3L83,146z M89,103l3,3l4,1l-2-3L89,103z M31,152l3,11l2-5l-4-7L31,152z"/>
        </g>
        <g id="ogasawara-box-2" transform="translate(661,430)">
            <rect id="rect428" x="-10" y="-10" width="160" height="200"/>
            <rect id="rect430" y="0" width="140" height="180"/>
            <path id="ogasawara-2" d="M82,65h3v-4h-5l-1,3l-7,1l-7-4l-3-13l3-4l3-10l-2,1l-12,4l-4-1v-4l-1-5l11-6l4,1l1-3l-5-3l-4-3l-1,3h-8l-2-2l2,9l-3-2l-5,1l-3-8 l-4-6l-3,3l3,8l4,8l5,10l7,9l-3,7h4l3,1l-4,7l2,2l5,14l1,5l4,1l2-4v8l7-2l4,7l4,9l-5,7h5l4-3l-1-7l-2-11l-4-4l-4-8l3-5v-6L82,65 z M40,119l-3-11h-5l-2,6l2,1v7l2-3l2,4L40,119z M61,132l1-3h-5l-7,5L61,132z M119,151l9-3l-4-3l-4-4l-3,8L119,151z M62,163v-9 l-6-3l-1,2l2,12l-4,2l6,4L62,163z M110,154l-5-3l-7,2l-2,6v2l10-1L110,154z"/>
        </g>
    </g>
</svg>
